<svg viewBox="0 0 139 139" xml:space="preserve" xmlns="http://www.w3.org/2000/svg"><path d="M109.92 59.988c.426-2.44.661-4.95.661-7.516 0-23.326-18.429-42.305-41.081-42.305-22.653 0-41.083 18.979-41.083 42.305 0 2.566.236 5.074.663 7.516-3.567 2.278-5.939 6.261-5.939 10.81v41.415c0 7.084 5.743 12.826 12.825 12.826h67.067c7.08 0 12.822-5.742 12.822-12.826h.004V70.798c0-4.548-2.37-8.532-5.939-10.81zM75.159 96.15v9a5.66 5.66 0 1 1-11.322 0v-9.004c-3.631-2.001-6.094-5.862-6.094-10.302 0-6.492 5.263-11.756 11.757-11.756s11.758 5.264 11.758 11.756c0 4.442-2.465 8.306-6.099 10.306zM94.95 57.971H44.049a28.5 28.5 0 0 1-.535-5.499c0-15.003 11.657-27.208 25.986-27.208 14.328 0 25.984 12.204 25.984 27.208 0 1.883-.184 3.724-.534 5.499z" fill="#34e0a1" class="fill-000000"></path></svg>